#!OML:ASF H:\Terrain\Patient Classification 1\Animal1\Tuesday\Animal1.ASF
:FULLY-SPECIFIED
:DEGREES
2881
root 13.4058 15.0264 -12.5339 5.41234 -33.7682 4.6551
lowerback -3.7591 0.957741 1.78433
upperback -9.71159 1.07704 -1.51513
thorax -8.01317 0.272709 -2.61889
lowerneck 12.6406 15.1573 0.345115
upperneck 12.1173 19.1377 22.7904
head -0.761892 9.56644 5.67024
rclavicle -1.57537e-014 -1.03368e-014
rhumerus 7.63134 16.1569 -94.9829
rradius 113.315
rwrist 27.1596
rhand 55.9667 -11.6044
rfingers 7.12502
rthumb 73.2639 7.55039
lclavicle -1.57537e-014 -1.03368e-014
lhumerus -13.0408 -35.8955 105.899
lradius 111.327
lwrist -66.2093
lhand 47.004 70.5336
lfingers 7.12502
lthumb 67.879 72.0439
rfemur -41.093 8.36007 18.8794
rtibia 61.0812
rfoot -23.2778 -16.5711
rtoes -5.71845
lfemur -29.4403 -9.3314 -27.448
ltibia 55.424
lfoot -29.847 18.7958
ltoes 2.50775
2882
root 13.4083 15.0297 -12.531 5.34926 -33.7995 4.66687
lowerback -3.70951 0.923268 1.72422
upperback -9.69146 1.0345 -1.46247
thorax -8.02349 0.258775 -2.52893
lowerneck 12.6621 15.1997 0.344328
upperneck 12.1154 19.1966 22.7426
head -0.765626 9.5939 5.64954
rclavicle 5.93372e-014 1.78906e-014
rhumerus 7.61878 16.2117 -94.9691
rradius 113.395
rwrist 26.8932
rhand 56.0497 -11.7938
rfingers 7.12502
rthumb 73.2999 7.60992
lclavicle 5.93372e-014 1.78906e-014
lhumerus -13.0596 -35.7707 105.937
lradius 111.329
lwrist -66.1907
lhand 47.1766 71.1596
lfingers 7.12502
lthumb 68.004 72.3758
rfemur -41.0088 8.34599 18.8651
rtibia 61.0525
rfoot -23.3917 -16.5396
rtoes -6.08865
lfemur -29.3502 -9.3126 -27.4907
ltibia 55.4103
lfoot -29.9899 18.6473
ltoes 3.88135
2883
root 13.4104 15.031 -12.5288 5.2668 -33.8724 4.73388
lowerback -3.68857 0.936015 1.63565
upperback -9.66098 1.05313 -1.43638
thorax -8.00214 0.276811 -2.45224
lowerneck 12.637 15.2078 0.338937
upperneck 12.1519 19.1989 22.699
head -0.745997 9.59955 5.6416
rclavicle 8.04084e-014 2.94201e-014
rhumerus 7.65561 16.2228 -94.8636
rradius 113.263
rwrist 27.3112
rhand 55.2417 -9.96277
rfingers 7.12502
rthumb 72.9357 7.0639
lclavicle 8.04084e-014 2.94201e-014
lhumerus -13.0155 -35.6899 105.997
lradius 111.241
lwrist -66.2898
lhand 47.4025 70.8853
lfingers 7.12502
lthumb 68.1665 71.7117
rfemur -40.9714 8.41396 18.7829
rtibia 61.0453
rfoot -23.4021 -16.4826
rtoes -6.47748
lfemur -29.2569 -9.4865 -27.581
ltibia 55.3751
lfoot -29.9738 18.7978
ltoes 4.75494
2884
root 13.4115 15.032 -12.5291 5.27814 -33.9311 4.73224
lowerback -3.70627 0.973308 1.61874
upperback -9.64859 1.10334 -1.4313
thorax -7.97563 0.303876 -2.43838
lowerneck 12.5301 15.164 0.417208
upperneck 12.3008 19.1133 22.6213
head -0.658015 9.57926 5.63441
rclavicle -1.99282e-014 7.15625e-015
rhumerus 7.62738 16.2749 -94.7587
rradius 112.896
rwrist 28.615
rhand 53.6919 -7.79634
rfingers 7.12502
rthumb 72.1577 4.96463
lclavicle -1.99282e-014 7.15625e-015
lhumerus -13.0577 -35.7359 106.013
lradius 111.242
lwrist -66.287
lhand 47.326 70.6428
lfingers 7.12502
lthumb 68.1116 71.6018
rfemur -40.9939 8.53633 18.7584
rtibia 61.0393
rfoot -23.2976 -16.5761
rtoes -6.83614
lfemur -29.2684 -9.54415 -27.5842
ltibia 55.3539
lfoot -29.874 19.0466
ltoes 3.5066
2885
root 13.4133 15.0324 -12.5297 5.32605 -33.9535 4.66901
lowerback -3.60969 0.996277 1.69625
upperback -9.70773 1.13467 -1.44474
thorax -8.09421 0.310216 -2.49995
lowerneck 12.5126 15.1267 0.503669
upperneck 12.3908 19.0519 22.6306
head -0.614256 9.56064 5.63827
rclavicle -3.63776e-014 -9.14409e-015
rhumerus 7.48009 16.3398 -94.745
rradius 112.483
rwrist 30.3144
rhand 51.5841 -6.12517
rfingers 7.12502
rthumb 70.9524 1.44613
lclavicle -3.63776e-014 -9.14409e-015
lhumerus -13.253 -35.7935 105.979
lradius 111.346
lwrist -66.1034
lhand 47.066 70.559
lfingers 7.12502
lthumb 67.924 71.964
rfemur -41.0085 8.62356 18.7958
rtibia 61.0252
rfoot -23.2298 -16.6047
rtoes -6.97032
lfemur -29.3104 -9.50993 -27.5297
ltibia 55.3607
lfoot -29.7654 19.1871
ltoes 2.6103
2886
root 13.4154 15.0311 -12.5289 5.34148 -33.9515 4.62526
lowerback -3.55291 0.985285 1.72229
upperback -9.72943 1.1219 -1.42709
thorax -8.15191 0.301488 -2.49703
lowerneck 12.5492 15.143 0.563597
upperneck 12.3791 19.0831 22.6401
head -0.621359 9.57494 5.62719
rclavicle 1.44119e-015 -1.98785e-015
rhumerus 7.46627 16.4483 -94.7429
rradius 112.464
rwrist 30.5683
rhand 51.1601 -6.77409
rfingers 7.12502
rthumb 70.6919 -0.164466
lclavicle 1.44119e-015 -1.98785e-015
lhumerus -13.2962 -35.686 105.909
lradius 111.349
lwrist -65.9968
lhand 46.9693 70.2438
lfingers 7.12502
lthumb 67.8539 71.8126
rfemur -40.9944 8.64124 18.8227
rtibia 61.0068
rfoot -23.2308 -16.6923
rtoes -7.69384
lfemur -29.3105 -9.48204 -27.5018
ltibia 55.3855
lfoot -29.801 19.1638
ltoes 2.77945
2887
root 13.417 15.0303 -12.528 5.3391 -33.9298 4.56388
lowerback -3.62605 0.887752 1.71635
upperback -9.62432 0.994679 -1.37893
thorax -8.00104 0.245067 -2.43555
lowerneck 12.4239 15.2193 0.757147
upperneck 12.4828 19.1796 22.4432
head -0.534516 9.64532 5.55411
rclavicle 1.80397e-014 -3.97569e-015
rhumerus 7.69776 16.7634 -94.8121
rradius 112.929
rwrist 29.0196
rhand 52.648 -9.96705
rfingers 7.12502
rthumb 71.5804 0.137454
lclavicle 1.80397e-014 -3.97569e-015
lhumerus -13.0969 -35.5021 105.609
lradius 111.355
lwrist -65.9043
lhand 47.0127 70.5558
lfingers 7.12502
lthumb 67.8853 72.0512
rfemur -40.9202 8.60551 18.8807
rtibia 60.9646
rfoot -23.406 -16.7057
rtoes -7.84039
lfemur -29.2774 -9.50655 -27.4472
ltibia 55.4086
lfoot -30.0091 19.0025
ltoes 2.91816
2888
root 13.419 15.0315 -12.528 5.30817 -33.9463 4.52214
lowerback -3.2772 0.784929 1.50847
upperback -9.75857 0.866756 -1.2086
thorax -8.3633 0.198088 -2.1429
lowerneck 12.252 15.2697 0.780258
upperneck 12.8883 19.1621 22.4564
head -0.383261 9.68068 5.59003
rclavicle 8.79622e-014 1.55052e-014
rhumerus 7.5168 16.9178 -94.8489
rradius 113.523
rwrist 27.3019
rhand 55.5776 -12.4997
rfingers 7.12502
rthumb 73.0907 5.50256
lclavicle 8.79622e-014 1.55052e-014
lhumerus -13.3532 -35.2261 105.764
lradius 111.398
lwrist -65.8576
lhand 46.9194 71.1163
lfingers 7.12502
lthumb 67.8176 72.7693
rfemur -40.8302 8.63455 18.9173
rtibia 60.8873
rfoot -23.6336 -16.5889
rtoes -6.97229
lfemur -29.2419 -9.5097 -27.4187
ltibia 55.4246
lfoot -30.059 18.9242
ltoes 3.08792
2889
root 13.4213 15.0339 -12.5264 5.31374 -33.9925 4.46491
lowerback -3.15011 0.830614 1.54031
upperback -9.8198 0.931566 -1.17976
thorax -8.50233 0.226395 -2.13583
lowerneck 12.1697 15.2405 0.641774
upperneck 13.0166 19.0774 22.6701
head -0.365511 9.64916 5.6863
rclavicle -4.90004e-014 -2.90226e-014
rhumerus 7.39742 16.6851 -94.787
rradius 113.776
rwrist 26.7007
rhand 57.4263 -13.1248
rfingers 7.12502
rthumb 73.8482 10.5636
lclavicle -4.90004e-014 -2.90226e-014
lhumerus -13.4527 -35.2876 105.889
lradius 111.362
lwrist -65.8607
lhand 46.816 70.8731
lfingers 7.12502
lthumb 67.7423 72.6997
rfemur -40.7701 8.69426 18.9594
rtibia 60.7988
rfoot -23.5165 -16.6679
rtoes -6.91196
lfemur -29.2202 -9.47882 -27.3887
ltibia 55.4401
lfoot -30.0641 18.8634
ltoes 3.54166
